<svg xmlns="http://www.w3.org/2000/svg" viewBox="0 0 43.64 48">
  <g>
    <path d="M24.983,20.767a.726.726,0,0,0-.1,1.023,3.6,3.6,0,0,1,.817,2.3v4.693H15.515V24.089a3.646,3.646,0,0,1,.818-2.3.727.727,0,1,0-1.127-.919A5.1,5.1,0,0,0,14.06,24.09v5.42a.729.729,0,0,0,.727.729H26.423a.728.728,0,0,0,.728-.729V24.09A5.091,5.091,0,0,0,26,20.871.723.723,0,0,0,24.983,20.767Z" fill="#1a171b"/>
    <path d="M20.607,20.187A3.636,3.636,0,1,0,16.97,16.55,3.641,3.641,0,0,0,20.607,20.187Zm0-5.818a2.183,2.183,0,1,1-2.182,2.182A2.185,2.185,0,0,1,20.607,14.369Z" fill="#1a171b"/>
    <path d="M43.637,5.576V3.637A3.641,3.641,0,0,0,40,0H6.546A4.126,4.126,0,0,0,2.424,4.121V5.816H.727a.728.728,0,0,0,0,1.456h1.7v4.363H.727a.728.728,0,0,0,0,1.456h1.7v4.363H.727a.728.728,0,0,0,0,1.456h1.7v4.363H.727a.728.728,0,0,0,0,1.456h1.7v4.365H.727a.727.727,0,1,0,0,1.454h1.7v4.365H.727a.728.728,0,0,0,0,1.456h1.7v4.363H.727a.728.728,0,0,0,0,1.456h1.7v1.7A4.127,4.127,0,0,0,6.546,48H40a3.641,3.641,0,0,0,3.636-3.637V42.428A3.623,3.623,0,0,0,42.16,39.52a3.623,3.623,0,0,0,1.477-2.908V34.673a3.622,3.622,0,0,0-1.478-2.91,3.622,3.622,0,0,0,1.478-2.91V26.908A3.62,3.62,0,0,0,42.16,24a3.624,3.624,0,0,0,1.477-2.91V19.151a3.618,3.618,0,0,0-1.478-2.908,3.625,3.625,0,0,0,1.478-2.91V11.394A3.62,3.62,0,0,0,42.16,8.486,3.629,3.629,0,0,0,43.637,5.576ZM42.183,42.423v1.939A2.185,2.185,0,0,1,40,46.544H35.844a4.083,4.083,0,0,0,1-2.666V40.243H40l.007,0A2.186,2.186,0,0,1,42.183,42.423Zm0-7.755v1.939a2.185,2.185,0,0,1-2.175,2.182l-.007,0H36.849v-6.3H40A2.185,2.185,0,0,1,42.183,34.668Zm0-7.76v1.939A2.185,2.185,0,0,1,40,31.029H36.849v-6.3H40A2.185,2.185,0,0,1,42.183,26.908Zm0-7.758v1.939A2.185,2.185,0,0,1,40,23.271H36.849v-6.3H40A2.185,2.185,0,0,1,42.183,19.15Zm0-7.758v1.939A2.185,2.185,0,0,1,40,15.513H36.849V9.21h3.156A2.186,2.186,0,0,1,42.183,11.392Zm0-5.816a2.183,2.183,0,0,1-2.177,2.18H36.123a.728.728,0,0,0-.728.729h0V31.759h0V43.88a2.669,2.669,0,0,1-2.667,2.666H6.546A2.669,2.669,0,0,1,3.879,43.88v-1.7h1.7a.728.728,0,0,0,0-1.456h-1.7V36.366h1.7a.728.728,0,0,0,0-1.456h-1.7V30.545h1.7a.727.727,0,1,0,0-1.454h-1.7V24.726h1.7a.728.728,0,0,0,0-1.456h-1.7V18.908h1.7a.728.728,0,0,0,0-1.456h-1.7V13.089h1.7a.728.728,0,0,0,0-1.456h-1.7V7.27h1.7a.728.728,0,0,0,0-1.456h-1.7v-1.7A2.669,2.669,0,0,1,6.546,1.453H40a2.185,2.185,0,0,1,2.182,2.182V5.576Z" fill="#1a171b"/>
  </g>
</svg>