<?xml version="1.0" encoding="UTF-8" standalone="no"?>
<!-- Created with Inkscape (http://www.inkscape.org/) -->

<svg
   version="1.1"
   id="svg674"
   width="16"
   height="16"
   viewBox="0 0 626 626"
   sodipodi:docname="pin-mask.svg"
   inkscape:version="1.2.2 (b0a8486, 2022-12-01)"
   xml:space="preserve"
   inkscape:export-filename="pin-mask-small.svg"
   inkscape:export-xdpi="2.4536741"
   inkscape:export-ydpi="2.4536741"
   xmlns:inkscape="http://www.inkscape.org/namespaces/inkscape"
   xmlns:sodipodi="http://sodipodi.sourceforge.net/DTD/sodipodi-0.dtd"
   xmlns="http://www.w3.org/2000/svg"
   xmlns:svg="http://www.w3.org/2000/svg"><defs
     id="defs678"><inkscape:path-effect
       effect="fill_between_many"
       method="originald"
       linkedpaths="#path684,0,1"
       id="path-effect6022"
       is_visible="true"
       lpeversion="0"
       join="true"
       close="true"
       autoreverse="true" /></defs><sodipodi:namedview
     id="namedview676"
     pagecolor="#ffffff"
     bordercolor="#000000"
     borderopacity="0.25"
     inkscape:showpageshadow="2"
     inkscape:pageopacity="0.0"
     inkscape:pagecheckerboard="0"
     inkscape:deskcolor="#d1d1d1"
     showgrid="false"
     inkscape:zoom="0.8810769"
     inkscape:cx="325.73774"
     inkscape:cy="318.92789"
     inkscape:window-width="1440"
     inkscape:window-height="978"
     inkscape:window-x="352"
     inkscape:window-y="25"
     inkscape:window-maximized="0"
     inkscape:current-layer="g680" /><g
     inkscape:groupmode="layer"
     inkscape:label="Image"
     id="g680"><path
       inkscape:original-d="M 0,0"
       inkscape:path-effect="#path-effect6022"
       d="m 330.2849,555.27488 c 45.05486,-45.54465 91.69626,-111.7215 118.99281,-168.83223 22.1397,-46.32142 33.34074,-84.28883 37.22673,-126.18507 6.96268,-75.06675 -30.1593,-143.22716 -96.47872,-177.146517 -25.71369,-13.151389 -49.87976,-18.785138 -80.5791,-18.785138 -50.67174,0 -93.79981,18.352681 -128.89601,54.850245 -47.79435,49.70277 -60.51542,115.6071 -37.86196,196.15213 15.38237,54.69239 49.14512,118.51569 94.82466,179.25135 30.85208,41.02104 65.14421,78.29325 72.03333,78.29325 2.35141,0 8.44346,-5.16958 20.73826,-17.59802 z"
       id="path6024"
       class="UnoptimicedTransforms" /><path
       style="fill:#000000;stroke:#000000;stroke-width:14.3775;stroke-dasharray:none;stroke-opacity:1"
       d="m 330.2849,555.27488 c 45.05486,-45.54465 91.69626,-111.7215 118.99281,-168.83223 22.1397,-46.32142 33.34074,-84.28883 37.22673,-126.18507 6.96268,-75.06675 -30.1593,-143.22716 -96.47872,-177.146517 -25.71369,-13.151389 -49.87976,-18.785138 -80.5791,-18.785138 -50.67174,0 -93.79981,18.352681 -128.89601,54.850245 -47.79435,49.70277 -60.51542,115.6071 -37.86196,196.15213 15.38237,54.69239 49.14512,118.51569 94.82466,179.25135 30.85208,41.02104 65.14421,78.29325 72.03333,78.29325 2.35141,0 8.44346,-5.16958 20.73826,-17.59802 z m -35.82672,1.38362 c -7.27829,-7.33767 -19.95492,-21.39812 -28.17031,-31.24545 -55.42022,-66.42928 -95.80822,-135.32188 -116.38336,-198.52314 -3.27416,-10.05734 -5.8457,-18.78453 -5.71451,-19.39373 0.13124,-0.60918 -0.16712,-2.07733 -0.66292,-3.2625 -0.49581,-1.18517 -2.23931,-8.61943 -3.87445,-16.5206 -3.81758,-18.44688 -5.30106,-52.9906 -3.00944,-70.07718 3.45358,-25.75048 13.73459,-52.45767 28.92554,-75.14046 9.27397,-13.84768 30.46886,-35.14621 43.154,-43.364976 5.14412,-3.332893 10.08115,-6.659029 10.97118,-7.391432 2.74109,-2.255543 18.47268,-9.880026 21.45956,-10.400568 1.55244,-0.270568 3.14637,-0.901674 3.54207,-1.402459 1.52969,-1.9359 25.39183,-8.573952 38.62623,-10.745162 16.40037,-2.690642 45.52535,-1.97506 61.37822,1.508022 72.62879,15.957498 124.83476,70.480275 136.77252,142.842285 1.88545,11.42878 2.27752,19.9548 1.68456,36.63264 -1.21215,34.09344 -8.22024,65.16541 -23.52022,104.28235 -7.0843,18.11211 -27.09152,58.83293 -33.73445,68.65989 -2.32133,3.43397 -4.2206,6.74455 -4.2206,7.35687 0,1.90273 -29.9388,46.04539 -42.50466,62.67017 -24.2134,32.03459 -64.84309,76.85668 -69.66794,76.85668 -0.99976,0 -7.7727,-6.00355 -15.05102,-13.34125 z"
       id="path684"
       sodipodi:nodetypes="ssssssssssssssssssssssssssssssss"
       class="UnoptimicedTransforms" /></g></svg>
